# Blender v2.79 (sub 0) OBJ File: 'Pillar.blend'
# www.blender.org
mtllib Pillar.mtl
o Cube
v 1.503583 1.000295 -2.497363
v 1.503583 0.000295 -2.497363
v 1.503583 1.000295 0.502637
v 1.503583 0.000295 0.502637
v -1.496418 1.000295 -2.497363
v -1.496418 0.000295 -2.497363
v -1.496418 1.000295 0.502637
v -1.496418 0.000295 0.502637
v 1.045536 1.000295 -2.042142
v 1.045536 1.000295 0.047416
v -1.038371 1.000295 -2.042142
v -1.038371 1.000295 0.047416
v 1.045536 6.367574 -2.042142
v 1.045536 6.367574 0.047416
v -1.038371 6.367574 -2.042142
v -1.038371 6.367574 0.047416
v 1.503583 7.371838 -2.497363
v 1.503583 6.371838 -2.497363
v 1.503583 7.371838 0.502637
v 1.503583 6.371838 0.502637
v -1.496418 7.371838 -2.497363
v -1.496418 6.371838 -2.497363
v -1.496418 7.371838 0.502637
v -1.496418 6.371838 0.502637
vt 0.525767 0.520562
vt 0.531386 0.520562
vt 0.531386 0.526171
vt 0.525767 0.526171
vt 0.525610 0.514953
vt 0.527483 0.514953
vt 0.527483 0.520562
vt 0.525610 0.520562
vt 0.572011 0.547014
vt 0.570138 0.547014
vt 0.570138 0.541405
vt 0.572011 0.541405
vt 0.512163 0.520562
vt 0.514036 0.520562
vt 0.514036 0.526171
vt 0.512163 0.526171
vt 0.515752 0.530597
vt 0.515752 0.536206
vt 0.510133 0.536206
vt 0.510133 0.530597
vt 0.523401 0.514953
vt 0.525274 0.514953
vt 0.525274 0.520562
vt 0.523401 0.520562
vt 0.175429 -0.002128
vt 0.175429 0.181695
vt -0.008225 0.181695
vt -0.008225 -0.002128
vt 0.000000 0.736085
vt 0.183654 0.736085
vt 0.183654 0.919907
vt 0.000000 0.919907
vt 0.000000 0.000000
vt 0.250338 0.000000
vt 0.250339 1.000000
vt 0.000000 1.000000
vt 0.500677 0.000000
vt 0.250338 0.000000
vt 0.250339 1.000000
vt 0.500677 1.000000
vt 1.000000 0.000000
vt 0.750339 0.000000
vt 0.750339 1.000000
vt 1.000000 1.000000
vt 0.750338 0.000000
vt 0.750338 1.000000
vt 0.519655 0.520562
vt 0.525274 0.520562
vt 0.525274 0.526171
vt 0.519655 0.526171
vt 0.517782 0.520562
vt 0.515909 0.520562
vt 0.515909 0.514953
vt 0.517782 0.514953
vt 0.581376 0.541405
vt 0.579503 0.541405
vt 0.579503 0.535796
vt 0.581376 0.535796
vt 0.521528 0.514953
vt 0.523401 0.514953
vt 0.523401 0.520562
vt 0.521528 0.520562
vt 0.519655 0.520562
vt 0.519655 0.526171
vt 0.514036 0.526171
vt 0.514036 0.520562
vt 0.517782 0.514953
vt 0.519655 0.514953
vt 0.519655 0.520562
vn 0.0000 1.0000 0.0000
vn 0.0000 0.0000 -1.0000
vn 0.0000 0.0000 1.0000
vn 1.0000 0.0000 0.0000
vn 0.0000 -1.0000 0.0000
vn -1.0000 0.0000 0.0000
usemtl Material
s off
f 1/1/1 5/2/1 7/3/1 3/4/1
f 6/5/2 5/6/2 1/7/2 2/8/2
f 4/9/3 3/10/3 7/11/3 8/12/3
f 2/13/4 1/14/4 3/15/4 4/16/4
f 6/17/5 2/18/5 4/19/5 8/20/5
f 8/21/6 7/22/6 5/23/6 6/24/6
f 9/25/5 10/26/5 12/27/5 11/28/5
f 13/29/1 15/30/1 16/31/1 14/32/1
f 11/33/6 12/34/6 16/35/6 15/36/6
f 10/37/4 9/38/4 13/39/4 14/40/4
f 9/41/2 11/42/2 15/43/2 13/44/2
f 12/45/3 10/37/3 14/40/3 16/46/3
f 17/47/1 21/48/1 23/49/1 19/50/1
f 22/51/2 21/52/2 17/53/2 18/54/2
f 20/55/3 19/56/3 23/57/3 24/58/3
f 18/59/4 17/60/4 19/61/4 20/62/4
f 22/63/5 18/64/5 20/65/5 24/66/5
f 24/67/6 23/68/6 21/69/6 22/51/6
