# Blender v2.78 (sub 0) OBJ File: 'Fir_1.blend'
# www.blender.org
mtllib Fir_1.mtl
o Cube.001
v 0.206938 -0.000000 0.250000
v -0.293062 -0.000000 0.250000
v -0.293062 0.000000 -0.250000
v 0.206938 0.000000 -0.250000
v 0.001254 6.617934 -0.044314
v -0.087378 6.617934 -0.044314
v -0.087378 6.617934 0.044318
v 0.001254 6.617934 0.044318
v -0.110650 5.319988 -0.826386
v -0.028145 6.995565 0.011323
v 0.216201 5.320017 -0.794180
v 0.437309 5.319976 -0.685278
v 0.622539 5.320007 -0.522679
v 0.777372 5.319987 -0.233028
v 0.803867 5.320110 0.176820
v 0.668456 5.319976 0.476776
v 0.443158 5.320088 0.716678
v 0.054362 5.319990 0.849031
v -0.272492 5.320007 0.816831
v -0.628006 5.320072 0.611183
v -0.833661 5.319988 0.255673
v -0.860156 5.320110 -0.154175
v -0.678831 5.320001 -0.522682
v -0.424942 5.320017 -0.731033
v -1.264428 1.922636 1.244200
v -0.047211 5.365444 0.026987
v -1.572532 1.922687 0.842288
v -0.125041 3.800846 -1.281050
v 0.002129 6.383502 0.010156
v 0.378757 3.800877 -1.231415
v 0.719557 3.800829 -1.063551
v -0.862506 1.922721 1.552291
v 1.005063 3.800877 -0.812930
v 1.674193 1.922636 0.026985
v 1.607844 1.922721 0.529041
v 1.243711 3.800856 -0.366473
v 1.293321 3.800877 0.137329
v 1.607844 1.922721 -0.475071
v -0.216736 1.922687 1.748201
v 1.195169 3.800829 0.504329
v 1.005071 3.800856 0.833249
v 0.613734 3.800893 1.154388
v 1.289756 1.922659 -1.070235
v 0.254057 3.800829 1.276680
v 0.288618 1.922636 1.715313
v -0.125044 3.800877 1.301348
v -0.492044 3.800829 1.203196
v 0.768082 1.922721 1.552292
v -0.820965 3.800853 1.013099
v 0.768083 1.922721 -1.498322
v -1.142110 3.800877 0.621765
v -1.289070 3.800861 0.137326
v 1.289754 1.922664 1.124203
v -1.239446 3.800867 -0.366475
v 0.288618 1.922636 -1.661343
v -1.000808 3.800867 -0.812933
v -0.609475 3.800893 -1.134076
v -0.216734 1.922700 -1.694226
v -1.768421 1.922700 0.196508
v -1.702275 1.922700 -0.475077
v -1.384177 1.922664 -1.070233
v -0.862513 1.922687 -1.498338
vt 0.2821 0.5712
vt 0.2821 0.5712
vt 0.2821 0.5712
vt 0.2821 0.5712
vt 0.2821 0.5712
vt 0.2821 0.5712
vt 0.2821 0.5712
vt 0.2821 0.5712
vt 0.6850 0.4304
vt 0.8475 0.4304
vt 0.8475 0.5929
vt 0.6850 0.4304
vt 0.8475 0.5929
vt 0.6850 0.4304
vt 0.8475 0.5929
vt 0.6850 0.4304
vt 0.8475 0.5929
vt 0.6850 0.4304
vt 0.8475 0.5929
vt 0.6850 0.4304
vt 0.8475 0.5929
vt 0.6850 0.4304
vt 0.8475 0.5929
vt 0.6850 0.4304
vt 0.8475 0.5929
vt 0.6850 0.4304
vt 0.8475 0.5929
vt 0.6850 0.4304
vt 0.8475 0.5929
vt 0.6850 0.4304
vt 0.8475 0.5929
vt 0.6850 0.4304
vt 0.8475 0.5929
vt 0.6850 0.4304
vt 0.8475 0.5929
vt 0.6850 0.4304
vt 0.8475 0.5929
vt 0.6850 0.4304
vt 0.8475 0.5929
vt 0.6850 0.4304
vt 0.8475 0.4304
vt 0.8475 0.5929
vt 0.6850 0.4304
vt 0.8475 0.4304
vt 0.8475 0.5929
vt 0.6850 0.4304
vt 0.8475 0.5929
vt 0.6850 0.4304
vt 0.8475 0.5929
vt 0.6850 0.4304
vt 0.8475 0.5929
vt 0.6850 0.4304
vt 0.8475 0.5929
vt 0.6850 0.4304
vt 0.8475 0.5929
vt 0.6850 0.4304
vt 0.8475 0.5929
vt 0.6850 0.4304
vt 0.8475 0.5929
vt 0.6850 0.4304
vt 0.8475 0.5929
vt 0.6850 0.4304
vt 0.8475 0.5929
vt 0.6850 0.4304
vt 0.8475 0.5929
vt 0.6850 0.4304
vt 0.8475 0.5929
vt 0.6850 0.4304
vt 0.8475 0.5929
vt 0.6850 0.4304
vt 0.8475 0.5929
vt 0.6850 0.4304
vt 0.8475 0.5929
vt 0.6850 0.4304
vt 0.8475 0.5929
vt 0.6850 0.4304
vt 0.8475 0.5929
vt 0.6850 0.4304
vt 0.8475 0.5929
vt 0.6850 0.4304
vt 0.8475 0.5929
vt 0.6850 0.4304
vt 0.8475 0.5929
vt 0.6850 0.4304
vt 0.8475 0.5929
vt 0.6850 0.4304
vt 0.8475 0.5929
vt 0.6850 0.4304
vt 0.8475 0.5929
vt 0.6850 0.4304
vt 0.8475 0.5929
vt 0.6850 0.4304
vt 0.8475 0.5929
vt 0.6850 0.4304
vt 0.8475 0.5929
vt 0.6850 0.4304
vt 0.8475 0.5929
vt 0.6850 0.4304
vt 0.8475 0.5929
vt 0.6850 0.4304
vt 0.8475 0.5929
vt 0.6850 0.4304
vt 0.8475 0.5929
vt 0.6850 0.4304
vt 0.8475 0.5929
vt 0.6850 0.4304
vt 0.8475 0.5929
vt 0.6850 0.4304
vt 0.8475 0.5929
vt 0.6850 0.4304
vt 0.8475 0.5929
vt 0.6850 0.4304
vt 0.8475 0.5929
vt 0.7662 0.5929
vt 0.7993 0.5859
vt 0.8266 0.5660
vt 0.8435 0.5368
vt 0.8470 0.5032
vt 0.8366 0.4710
vt 0.8140 0.4459
vt 0.7831 0.4322
vt 0.7493 0.4322
vt 0.7185 0.4459
vt 0.6958 0.4710
vt 0.6854 0.5032
vt 0.6889 0.5368
vt 0.7058 0.5660
vt 0.7332 0.5859
vt 0.7662 0.5929
vt 0.7940 0.5880
vt 0.8184 0.5739
vt 0.8366 0.5523
vt 0.8462 0.5258
vt 0.8462 0.4975
vt 0.8366 0.4710
vt 0.8184 0.4494
vt 0.7940 0.4353
vt 0.7662 0.4304
vt 0.7384 0.4353
vt 0.7140 0.4494
vt 0.6958 0.4710
vt 0.6862 0.4975
vt 0.6862 0.5258
vt 0.6958 0.5523
vt 0.7140 0.5739
vt 0.7384 0.5880
vt 0.7662 0.5929
vt 0.7940 0.5880
vt 0.8184 0.5739
vt 0.8366 0.5523
vt 0.8462 0.5258
vt 0.8462 0.4975
vt 0.8366 0.4710
vt 0.8184 0.4494
vt 0.7940 0.4353
vt 0.7662 0.4304
vt 0.7384 0.4353
vt 0.7140 0.4494
vt 0.6958 0.4710
vt 0.6862 0.4975
vt 0.6862 0.5258
vt 0.6958 0.5523
vt 0.7140 0.5739
vt 0.7384 0.5880
vn 0.0000 -1.0000 -0.0000
vn 0.0000 1.0000 0.0000
vn 0.0000 0.0311 -0.9995
vn 0.0000 0.0311 0.9995
vn 0.9995 0.0311 0.0000
vn -0.9995 0.0311 0.0000
vn 0.0879 0.4420 -0.8927
vn 0.3959 0.4441 -0.8037
vn 0.5910 0.4441 -0.6734
vn 0.7911 0.4420 -0.4229
vn 0.8964 0.4394 -0.0581
vn 0.8173 0.4423 0.3692
vn 0.6539 0.4423 0.6138
vn 0.2894 0.4394 0.8504
vn -0.0879 0.4420 0.8927
vn -0.4497 0.4394 0.7776
vn -0.7776 0.4394 0.4497
vn -0.8964 0.4394 0.0581
vn -0.8059 0.4394 -0.3967
vn -0.5691 0.4420 -0.6934
vn -0.2604 0.4420 -0.8584
vn -0.7110 0.4441 0.5451
vn -0.5451 0.4441 0.7110
vn 0.8883 0.4441 0.1173
vn 0.8927 0.4420 -0.0879
vn 0.8883 0.4441 -0.1173
vn -0.2604 0.4420 0.8584
vn 0.8655 0.4441 0.2315
vn 0.7757 0.4441 0.4483
vn 0.5691 0.4420 0.6934
vn 0.2883 0.4441 0.8483
vn 0.0582 0.4441 0.8941
vn -0.2315 0.4441 0.8655
vn -0.4483 0.4441 0.7757
vn 0.5691 0.4420 -0.6934
vn -0.6934 0.4420 0.5691
vn -0.8584 0.4420 0.2604
vn -0.8927 0.4420 -0.0879
vn 0.2883 0.4441 -0.8483
vn -0.7911 0.4420 -0.4229
vn 0.0582 0.4441 -0.8941
vn 0.7911 0.4420 0.4229
usemtl Fir
s off
f 1/1/1 2/2/1 3/3/1 4/4/1
f 5/5/2 6/6/2 7/7/2 8/8/2
f 3/3/3 6/6/3 5/5/3 4/4/3
f 1/1/4 8/8/4 7/7/4 2/2/4
f 4/4/5 5/5/5 8/8/5 1/1/5
f 2/2/6 7/7/6 6/6/6 3/3/6
f 9/9/7 10/10/7 11/11/7
f 11/12/8 10/10/8 12/13/8
f 12/14/9 10/10/9 13/15/9
f 13/16/10 10/10/10 14/17/10
f 14/18/11 10/10/11 15/19/11
f 15/20/12 10/10/12 16/21/12
f 16/22/13 10/10/13 17/23/13
f 17/24/14 10/10/14 18/25/14
f 18/26/15 10/10/15 19/27/15
f 19/28/16 10/10/16 20/29/16
f 20/30/17 10/10/17 21/31/17
f 21/32/18 10/10/18 22/33/18
f 22/34/19 10/10/19 23/35/19
f 23/36/20 10/10/20 24/37/20
f 24/38/21 10/10/21 9/39/21
f 25/40/22 26/41/22 27/42/22
f 28/43/7 29/44/7 30/45/7
f 30/46/8 29/44/8 31/47/8
f 32/48/23 26/41/23 25/49/23
f 31/50/9 29/44/9 33/51/9
f 34/52/24 26/41/24 35/53/24
f 33/54/10 29/44/10 36/55/10
f 36/56/25 29/44/25 37/57/25
f 38/58/26 26/41/26 34/59/26
f 39/60/27 26/41/27 32/61/27
f 37/62/28 29/44/28 40/63/28
f 40/64/29 29/44/29 41/65/29
f 41/66/30 29/44/30 42/67/30
f 43/68/10 26/41/10 38/69/10
f 42/70/31 29/44/31 44/71/31
f 45/72/32 26/41/32 39/73/32
f 44/74/32 29/44/32 46/75/32
f 46/76/33 29/44/33 47/77/33
f 48/78/31 26/41/31 45/79/31
f 47/80/34 29/44/34 49/81/34
f 50/82/35 26/41/35 43/83/35
f 49/84/36 29/44/36 51/85/36
f 51/86/37 29/44/37 52/87/37
f 53/88/30 26/41/30 48/89/30
f 52/90/38 29/44/38 54/91/38
f 55/92/39 26/41/39 50/93/39
f 54/94/40 29/44/40 56/95/40
f 56/96/20 29/44/20 57/97/20
f 58/98/41 26/41/41 55/99/41
f 57/100/21 29/44/21 28/101/21
f 35/102/42 26/41/42 53/103/42
f 27/104/37 26/41/37 59/105/37
f 59/106/38 26/41/38 60/107/38
f 60/108/40 26/41/40 61/109/40
f 61/110/20 26/41/20 62/111/20
f 62/112/21 26/41/21 58/113/21
f 20/114/1 21/115/1 22/116/1 23/117/1 24/118/1 9/119/1 11/120/1 12/121/1 13/122/1 14/123/1 15/124/1 16/125/1 17/126/1 18/127/1 19/128/1
f 52/129/1 54/130/1 56/131/1 57/132/1 28/133/1 30/134/1 31/135/1 33/136/1 36/137/1 37/138/1 40/139/1 41/140/1 42/141/1 44/142/1 46/143/1 47/144/1 49/145/1 51/146/1
f 43/147/1 38/148/1 34/149/1 35/150/1 53/151/1 48/152/1 45/153/1 39/154/1 32/155/1 25/156/1 27/157/1 59/158/1 60/159/1 61/160/1 62/161/1 58/162/1 55/163/1 50/164/1
